<svg width="36" height="36" viewBox="0 0 36 36" fill="none" xmlns="http://www.w3.org/2000/svg">
<g id="chevron-up-outline 2">
<g id="Group">
<g id="Layer 2">
<path id="chevron-up" d="M12.0001 14.25C12.1975 14.2489 12.3932 14.2867 12.576 14.3613C12.7587 14.436 12.9249 14.546 13.0651 14.685L18.0001 19.65L22.9501 14.88C23.2311 14.6006 23.6113 14.4438 24.0076 14.4438C24.4039 14.4438 24.784 14.6006 25.0651 14.88C25.2057 15.0194 25.3173 15.1854 25.3934 15.3681C25.4696 15.5509 25.5088 15.747 25.5088 15.945C25.5088 16.143 25.4696 16.3391 25.3934 16.5219C25.3173 16.7047 25.2057 16.8706 25.0651 17.01L19.0651 22.8C18.7847 23.0748 18.4077 23.2288 18.0151 23.2288C17.6225 23.2288 17.2455 23.0748 16.9651 22.8L10.9651 16.8C10.8245 16.6606 10.7129 16.4947 10.6368 16.3119C10.5606 16.1291 10.5214 15.933 10.5214 15.735C10.5214 15.537 10.5606 15.3409 10.6368 15.1581C10.7129 14.9753 10.8245 14.8094 10.9651 14.67C11.2432 14.402 11.6139 14.2515 12.0001 14.25Z" fill="#425F6A"/>
</g>
</g>
</g>
</svg>
