<svg width="36" height="36" viewBox="0 0 36 36" fill="none" xmlns="http://www.w3.org/2000/svg">
<g id="chevron-up-outline 1">
<g id="Group">
<g id="Layer 2">
<path id="chevron-up" d="M23.9999 21.75C23.8025 21.7511 23.6068 21.7133 23.424 21.6387C23.2413 21.564 23.0751 21.454 22.9349 21.315L17.9999 16.35L13.0499 21.12C12.7689 21.3994 12.3887 21.5562 11.9924 21.5562C11.5961 21.5562 11.216 21.3994 10.9349 21.12C10.7943 20.9806 10.6827 20.8146 10.6066 20.6319C10.5304 20.4491 10.4912 20.253 10.4912 20.055C10.4912 19.857 10.5304 19.6609 10.6066 19.4781C10.6827 19.2953 10.7943 19.1294 10.9349 18.99L16.9349 13.2C17.2153 12.9252 17.5923 12.7712 17.9849 12.7712C18.3775 12.7712 18.7545 12.9252 19.0349 13.2L25.0349 19.2C25.1755 19.3394 25.2871 19.5053 25.3632 19.6881C25.4394 19.8709 25.4786 20.067 25.4786 20.265C25.4786 20.463 25.4394 20.6591 25.3632 20.8419C25.2871 21.0247 25.1755 21.1906 25.0349 21.33C24.7568 21.598 24.3861 21.7485 23.9999 21.75Z" fill="#425F6A"/>
</g>
</g>
</g>
</svg>
